<?xml version="1.0" encoding="utf-8"?>
<!-- Generator: Adobe Illustrator 16.0.3, SVG Export Plug-In . SVG Version: 6.00 Build 0)  -->
<!DOCTYPE svg PUBLIC "-//W3C//DTD SVG 1.1//EN" "http://www.w3.org/Graphics/SVG/1.1/DTD/svg11.dtd">
<svg version="1.1" id="Layer_1" xmlns="http://www.w3.org/2000/svg" xmlns:xlink="http://www.w3.org/1999/xlink" x="0px" y="0px"
	 width="44.255px" height="64.001px" viewBox="0 0 44.255 64.001" enable-background="new 0 0 44.255 64.001" xml:space="preserve">
<g>
	<path fill-rule="evenodd" clip-rule="evenodd" stroke="#424242" stroke-width="3" stroke-miterlimit="10" d="M16.01,54.542
		c0.417-0.497,0.68-0.818,0.953-1.132c6.49-7.485,13.008-14.953,19.463-22.459c3.961-4.606,6.544-9.624,5.911-15.505
		c-0.511-4.747-2.592-8.838-7.662-11.226c-6.944-3.27-14.322-3.635-21.555-0.854C5.851,6.16,3.042,11.699,1.817,18.055
		c3.505,0,6.919,0,10.312,0c0.246-0.856,0.418-1.657,0.707-2.427c2.079-5.536,10.358-7.851,15.911-4.416
		c3.042,1.882,3.604,4.612,3.152,7.553c-0.527,3.43-2.519,6.31-4.928,9.028c-7.883,8.892-15.74,17.8-23.599,26.707
		c-0.255,0.289-0.594,0.632-0.601,0.954c-0.052,2.333-0.028,4.666-0.028,7.048c13.398,0,26.685,0,40.013,0c0-2.657,0-5.251,0-7.958
		C33.888,54.542,25.081,54.542,16.01,54.542z"/>
	<path fill-rule="evenodd" clip-rule="evenodd" stroke="#424242" stroke-width="3" stroke-miterlimit="10" d="M16.01,54.542
		c9.071,0,17.878,0,26.746,0c0,2.707,0,5.302,0,7.958c-13.328,0-26.615,0-40.013,0c0-2.382-0.024-4.716,0.028-7.048
		c0.007-0.322,0.346-0.665,0.601-0.954c7.859-8.907,15.716-17.815,23.599-26.707c2.409-2.718,4.4-5.598,4.928-9.028
		c0.452-2.94-0.11-5.67-3.152-7.553c-5.552-3.435-13.832-1.12-15.911,4.416c-0.289,0.77-0.46,1.571-0.707,2.427
		c-3.393,0-6.807,0-10.312,0C3.042,11.699,5.851,6.16,13.121,3.365c7.232-2.781,14.61-2.416,21.555,0.854
		c5.07,2.388,7.151,6.479,7.662,11.226c0.633,5.882-1.95,10.899-5.911,15.505c-6.455,7.506-12.973,14.975-19.463,22.459
		C16.689,53.725,16.427,54.046,16.01,54.542z"/>
</g>
</svg>
