<?xml version="1.0" encoding="utf-8"?>
<!-- Generator: Adobe Illustrator 16.0.3, SVG Export Plug-In . SVG Version: 6.00 Build 0)  -->
<!DOCTYPE svg PUBLIC "-//W3C//DTD SVG 1.1//EN" "http://www.w3.org/Graphics/SVG/1.1/DTD/svg11.dtd">
<svg version="1.1" id="Layer_2" xmlns="http://www.w3.org/2000/svg" xmlns:xlink="http://www.w3.org/1999/xlink" x="0px" y="0px"
	 width="2084.333px" height="559.334px" viewBox="0 0 2084.333 559.334" enable-background="new 0 0 2084.333 559.334"
	 xml:space="preserve">
<g>
	<polygon fill="#E50913" points="193.107,302.012 85.277,0.334 83.336,0.326 83.333,0 0,0 0,559.334 88,548.666 85.384,241.12 
		189.333,534.666 286,524.666 286,0.334 198,0.334 	"/>
	<polygon fill="#E50913" points="395.333,0 370.333,0 370.333,517.084 482.333,507.584 482.333,507.146 613.499,498.168 
		614.333,412.668 482.333,421.686 482.333,292.478 576.833,291.834 576.833,205 482.333,205 482.333,87.552 614.833,86.834 
		614.833,0 482.333,0 	"/>
	<polygon fill="#E50913" points="670.833,86.334 763.166,86.334 763.165,492.334 849.5,488.334 849.5,86.334 941.833,86.334 
		941.833,0 670.833,0 	"/>
	<polygon fill="#E50913" points="998.833,87.334 999.166,87.334 999.166,486.002 1085.5,486.002 1085.5,286.502 1204.5,286.502 
		1204.5,200.167 1085.5,200.167 1085.5,87.334 1243.331,87.334 1243.331,1 998.833,1 	"/>
	<polygon fill="#E50913" points="1387.333,0 1300.167,0 1300.167,490.334 1350.997,492.473 1538.167,501.836 1538.167,415.5 
		1387.333,408.399 	"/>
	<polygon fill="#E50913" points="1610.665,508.039 1697.831,515.334 1697.831,0.334 1610.665,0.334 	"/>
	<polygon fill="#E50913" points="1888.911,454.227 2049.387,82.998 2049.667,83.002 2058.788,61.254 2058.79,61.246 2084.333,0.334 
		1775.333,0.334 1782.327,79.184 1953.717,81.631 1763.667,522.336 1855,532.668 1855.116,532.402 2083.333,559.334 
		2070.833,472.334 	"/>
</g>
</svg>
